<?xml version="1.0" encoding="utf-8"?>
<!-- Generator: Adobe Illustrator 24.0.1, SVG Export Plug-In . SVG Version: 6.00 Build 0)  -->
<svg version="1.1" id="Ebene_1" xmlns="http://www.w3.org/2000/svg" xmlns:xlink="http://www.w3.org/1999/xlink" x="0px" y="0px"
	 viewBox="0 0 750 520" style="enable-background:new 0 0 750 520;" xml:space="preserve">
<style type="text/css">
	.st0{fill:url(#SVGID_1_);}
	.st1{fill:none;stroke:#B088FF;}
</style>
<g id="bg" transform="translate(-225 -140)">
	<g id="Rectangle_4754" transform="translate(225 140)">
		
			<linearGradient id="SVGID_1_" gradientUnits="userSpaceOnUse" x1="-122.8382" y1="759.5439" x2="-123.8242" y2="760.5299" gradientTransform="matrix(750 0 0 -520 92876 395481)">
			<stop  offset="0" style="stop-color:#1C1429"/>
			<stop  offset="1" style="stop-color:#322448"/>
		</linearGradient>
		<path class="st0" d="M4,0h742c2.2,0,4,1.8,4,4v512c0,2.2-1.8,4-4,4H4c-2.2,0-4-1.8-4-4V4C0,1.8,1.8,0,4,0z"/>
		<path class="st1" d="M4,0.5h742c1.9,0,3.5,1.6,3.5,3.5v512c0,1.9-1.6,3.5-3.5,3.5H4c-1.9,0-3.5-1.6-3.5-3.5V4
			C0.5,2.1,2.1,0.5,4,0.5z"/>
	</g>
</g>
<image style="overflow:visible;" width="640" height="360" xlink:href="../../background.jpg"  transform="matrix(1.1719 0 0 1.4472 0 -0.5)">
</image>
</svg>
